<mxfile>
    <diagram id="QaVprELXxba0TeY-F8iI" name="Page-1">
        <mxGraphModel dx="1054" dy="823" grid="1" gridSize="10" guides="1" tooltips="1" connect="1" arrows="1" fold="1" page="1" pageScale="1" pageWidth="850" pageHeight="1100" background="#FFFFFF" math="0" shadow="0">
            <root>
                <mxCell id="0"/>
                <mxCell id="1" parent="0"/>
                <mxCell id="14" value="&lt;font color=&quot;#000000&quot;&gt;Triple 2&lt;br&gt;&lt;/font&gt;" style="rounded=1;whiteSpace=wrap;html=1;fontSize=14;fontColor=#007FFF;dashed=1;verticalAlign=bottom;labelPosition=center;verticalLabelPosition=top;align=left;" vertex="1" parent="1">
                    <mxGeometry x="60" y="460" width="520" height="120" as="geometry"/>
                </mxCell>
                <mxCell id="13" value="&lt;font color=&quot;#000000&quot;&gt;Triple 1&lt;/font&gt;" style="rounded=1;whiteSpace=wrap;html=1;fontSize=14;fontColor=#007FFF;dashed=1;verticalAlign=bottom;labelPosition=center;verticalLabelPosition=top;align=left;" vertex="1" parent="1">
                    <mxGeometry x="60" y="300" width="520" height="120" as="geometry"/>
                </mxCell>
                <mxCell id="6" style="edgeStyle=orthogonalEdgeStyle;rounded=0;orthogonalLoop=1;jettySize=auto;html=1;fontColor=#007FFF;" edge="1" parent="1" source="4" target="5">
                    <mxGeometry relative="1" as="geometry"/>
                </mxCell>
                <mxCell id="7" value="https://example.org/has_visited" style="edgeLabel;html=1;align=center;verticalAlign=middle;resizable=0;points=[];fontColor=#007FFF;" vertex="1" connectable="0" parent="6">
                    <mxGeometry x="-0.1652" y="2" relative="1" as="geometry">
                        <mxPoint x="11" y="2" as="offset"/>
                    </mxGeometry>
                </mxCell>
                <mxCell id="4" value="&lt;span&gt;https://example.org/james&lt;/span&gt;" style="ellipse;whiteSpace=wrap;html=1;fontColor=#007FFF;" vertex="1" parent="1">
                    <mxGeometry x="80" y="320" width="150" height="80" as="geometry"/>
                </mxCell>
                <mxCell id="5" value="&lt;span&gt;https://example.org/louvre&lt;/span&gt;" style="ellipse;whiteSpace=wrap;html=1;fontColor=#007FFF;" vertex="1" parent="1">
                    <mxGeometry x="420" y="320" width="150" height="80" as="geometry"/>
                </mxCell>
                <mxCell id="10" style="edgeStyle=orthogonalEdgeStyle;rounded=0;orthogonalLoop=1;jettySize=auto;html=1;entryX=0;entryY=0.5;entryDx=0;entryDy=0;fontColor=#007FFF;" edge="1" parent="1" source="8" target="9">
                    <mxGeometry relative="1" as="geometry"/>
                </mxCell>
                <mxCell id="12" value="https://example.org/has_name" style="edgeLabel;html=1;align=center;verticalAlign=middle;resizable=0;points=[];fontColor=#007FFF;" vertex="1" connectable="0" parent="10">
                    <mxGeometry x="0.1789" y="2" relative="1" as="geometry">
                        <mxPoint x="-22" y="2" as="offset"/>
                    </mxGeometry>
                </mxCell>
                <mxCell id="8" value="&lt;span&gt;https://example.org/james&lt;/span&gt;" style="ellipse;whiteSpace=wrap;html=1;fontColor=#007FFF;" vertex="1" parent="1">
                    <mxGeometry x="80" y="480" width="150" height="80" as="geometry"/>
                </mxCell>
                <mxCell id="9" value="&lt;span&gt;&lt;font color=&quot;#ff0000&quot;&gt;&quot;james&quot;&lt;/font&gt;&lt;/span&gt;" style="ellipse;whiteSpace=wrap;html=1;fontColor=#007FFF;" vertex="1" parent="1">
                    <mxGeometry x="420" y="480" width="150" height="80" as="geometry"/>
                </mxCell>
            </root>
        </mxGraphModel>
    </diagram>
</mxfile>